
<svg xmlns="http://www.w3.org/2000/svg" xmlns:xlink="http://www.w3.org/1999/xlink" viewBox="0 0 501 901">
  <defs>

    <linearGradient id="linear-gradient" x1="250.5" y1="900.5" x2="250.5" y2=".5" gradientUnits="userSpaceOnUse">
      <stop offset="0" stop-color="#000"/>
      <stop offset=".54" stop-color="#911505"/>
      <stop offset=".95" stop-color="#110301"/>
      <stop offset="1" stop-color="#000"/>
    </linearGradient>
  </defs>
  <g id="Layer_1" data-name="Layer 1">
    <rect class="cls-2" x=".5" y=".5" width="500" height="900"/>
  </g>
  <g id="Layer_2" data-name="Layer 2">
    <rect class="cls-1" x="212.48" y="99.31" width="79.41" height="712.07" transform="translate(-202.96 202.8) rotate(-32)"/>
  </g>
  <g id="Layer_3" data-name="Layer 3">
    <rect class="cls-1" x="210.57" y="86.43" width="79.41" height="727.61" transform="translate(273.28 -64.37) rotate(31.63)"/>
    <path class="cls-5" d="m222.41,413.47c.22,4.86.01,9.72-.62,14.54l4.91-.66c-1.67-9.2-3.33-18.39-5-27.59-.52-2.86-4.82-2.05-4.91.66-.32,9.74-.4,19.48-.22,29.22.06,3.21,5.06,3.22,5,0-.18-9.74-.1-19.48.22-29.22l-4.91.66c1.67,9.2,3.33,18.39,5,27.59.22,1.21,1.62,1.96,2.74,1.79,1.33-.2,2-1.18,2.17-2.46.64-4.82.84-9.68.62-14.54-.15-3.2-5.15-3.22-5,0h0Z"/>
    <path class="cls-4" d="m163.88,314.5c3.22,0,3.22-5,0-5s-3.22,5,0,5h0Z"/>
    <path class="cls-4" d="m163.88,314.5c3.22,0,3.22-5,0-5s-3.22,5,0,5h0Z"/>
    <path class="cls-3" d="m225.09,394.32l1.84,27.28c.09,1.35,1.08,2.5,2.5,2.5,1.28,0,2.59-1.15,2.5-2.5l-1.84-27.28c-.09-1.35-1.08-2.5-2.5-2.5-1.28,0-2.59,1.15-2.5,2.5h0Z"/>
    <path class="cls-3" d="m199.69,408.99c6.26,15.2,13.4,30.02,21.47,44.34,2.27,4.03,4.61,8.01,7.01,11.96.88,1.45,3.54,1.81,4.32,0,3.58-8.29.46-17.68-1.76-25.94-2.41-8.93-5.31-17.73-8.39-26.45-1.77-5.01-3.59-10-5.42-14.99-1.12-3.06-5.32-1.83-4.82,1.33,1.88,11.99,5.5,23.62,10.63,34.62.52,1.11,2.08,1.48,3.12,1.02,1.18-.52,1.7-1.7,1.45-2.95-2.98-14.58-7.12-28.9-12.38-42.81-.44-1.16-1.44-1.99-2.74-1.79-1.1.16-2.33,1.21-2.17,2.46,2.16,16.27,4.99,32.48,9.63,48.24,1.32,4.46,2.78,8.88,4.4,13.25.96,2.6,4.79,2.26,4.91-.66.79-19.49-1.48-39.08-6.68-57.88-.36-1.3-1.77-2.1-3.08-1.75-1.4.39-1.98,1.74-1.75,3.08,2.74,15.64,6.97,31,12.64,45.83,1.63,4.27,3.39,8.5,5.24,12.68,1.18,2.65,5.25.73,4.57-1.93-4.33-17-9.16-33.87-14.48-50.58-1.53-4.8-3.1-9.58-4.7-14.35-.4-1.17-1.48-1.98-2.74-1.79-1.33.2-2,1.18-2.17,2.46-.65,5.05-.57,10.14-.37,15.21s.41,9.95.62,14.93c.42,10.14.85,20.28,1.27,30.42l4.91-.66c-6.57-16.28-13.13-32.55-19.7-48.83-.47-1.15-1.42-1.99-2.74-1.79-1.16.17-2.24,1.19-2.17,2.46.59,9.9,3.6,19.31,7.45,28.38,1.91,4.5,4.02,8.91,6.16,13.31,1.84,3.8,3.84,7.78,7.71,9.88,1.66.9,3.75-.22,3.76-2.16.05-10.86-2.53-21.57-7.44-31.25-.91-1.8-4.25-1.54-4.57.6-1.86,12.23-2.16,24.61-.75,36.91l4.91-.66c-2.03-5.61-3.55-11.38-4.5-17.27-.42-2.6-.56-5.43-2.06-7.7-1.61-2.44-4.15-3.66-7.04-3.23-1.14.17-1.75,1.41-1.84,2.41-1,11.32,5.32,22.83,15.33,28.16,2.84,1.51,5.37-2.8,2.52-4.32-8.6-4.57-13.72-14.16-12.86-23.84l-1.84,2.41c1.42-.21,2.11,2.45,2.3,3.34.5,2.28.71,4.63,1.15,6.92.95,4.92,2.3,9.74,4,14.45.42,1.17,1.46,1.98,2.74,1.79,1.11-.17,2.31-1.2,2.17-2.46-1.36-11.82-1.21-23.82.57-35.58l-4.57.6c4.51,8.89,6.81,18.76,6.76,28.73l3.76-2.16c-3.31-1.79-4.76-5.7-6.31-8.91-2-4.13-3.98-8.27-5.76-12.49-3.46-8.23-6.24-16.89-6.77-25.85l-4.91.66c6.57,16.28,13.13,32.55,19.7,48.83.47,1.15,1.42,1.99,2.74,1.79,1.18-.18,2.22-1.19,2.17-2.46-.42-10.14-.85-20.28-1.27-30.42-.21-4.98-.43-9.95-.62-14.93s-.29-10.16.37-15.21l-4.91.66c5.6,16.62,10.71,33.41,15.33,50.33,1.32,4.86,2.61,9.73,3.85,14.6l4.57-1.93c-6.31-14.24-11.23-29.1-14.73-44.28-1-4.32-1.87-8.67-2.64-13.04l-4.82,1.33c5.09,18.4,7.28,37.47,6.5,56.55l4.91-.66c-5.6-15.11-9.25-30.87-11.87-46.75-.73-4.46-1.39-8.93-1.99-13.41l-4.91.66c5.26,13.92,9.4,28.24,12.38,42.81l4.57-1.93c-4.95-10.59-8.32-21.88-10.13-33.42l-4.82,1.33c6.08,16.63,12.3,33.37,16.1,50.7.9,4.11,1.71,8.82-.02,12.83h4.32c-8.36-13.71-15.9-27.92-22.54-42.55-1.89-4.15-3.7-8.34-5.44-12.56-.51-1.25-1.66-2.14-3.08-1.75-1.18.32-2.26,1.82-1.75,3.08h0Z"/>
    <path class="cls-3" d="m158.55,300.89c3.33,6.21,6.66,12.43,10,18.64.58,1.09,2.03,1.5,3.12,1.02,1.03-.45,1.93-1.78,1.45-2.95-1.98-4.83-5.63-8.46-10.5-10.36-2.08-.81-3.89,1.93-2.82,3.67,1.82,2.97,3.43,6.06,4.83,9.26l3.42-3.42c-2.19-1.39-4.12-3.19-5.62-5.31-.78-1.1-2.18-1.62-3.42-.9-1.09.64-1.68,2.31-.9,3.42,2.01,2.85,4.47,5.23,7.41,7.11.93.59,2.27.37,3.03-.39.85-.85.84-2,.39-3.03-1.39-3.2-3-6.29-4.83-9.26l-2.82,3.67c2.97,1.16,5.79,3.92,7,6.87l4.57-1.93c-3.33-6.21-6.66-12.43-10-18.64-.64-1.19-2.29-1.56-3.42-.9-1.2.7-1.54,2.23-.9,3.42h0Z"/>
    <path class="cls-3" d="m208.3,375.83c7.25,4.66,14.65,9.15,21.73,14.05,5.57,3.86,11.22,8.58,13.7,15.1l4.18-2.43c-9.94-8.57-19.35-17.73-28.17-27.45l-3.54,3.54c8.16,6.32,13.07,15.52,17.79,24.47,1.33,2.52,5.34.78,4.57-1.93-2.65-9.33-7.25-17.94-13.44-25.4-1.18-1.42-3.81-.65-4.18,1.1-2.57,12.11-1.79,24.81,2.41,36.47.8,2.22,4.15,2.53,4.82,0,1.6-6.06,2.11-12.37,1.4-18.6l-4.66,1.26c1.61,3.56,3.67,6.83,6.07,9.9,1.24,1.59,3.65.49,4.18-1.1.73-2.21.09-4.54-1.47-6.21-1.46-1.56-4.34-.38-4.27,1.77.19,5.71,1.57,11.2,4.01,16.35,1.07,2.25,4.77,1.14,4.66-1.26-.38-7.82-2.59-15.43-6.51-22.21l-3.93,3.03c3.61,3.21,6.15,7.28,7.38,11.95l4.82-1.33c-1.58-3.97-3.22-7.9-6.18-11.07-.75-.81-2.1-.94-3.03-.39-1.03.6-1.32,1.71-1.15,2.82,1.71,11.04.62,22.46-2.83,33.06-1.71,5.26-4.02,10.29-6.88,15.02-1.44,2.38-3.01,4.71-4.75,6.89-1.01,1.26-2.38,3.07-3.76,1.25-.87-1.16-.7-2.76-.41-4.08.38-1.7.98-3.36,1.5-5.03,1.19-3.75,2.37-7.5,3.56-11.25.97-3.08-3.85-4.39-4.82-1.33-1.19,3.75-2.37,7.5-3.56,11.25-1.08,3.41-2.61,7.17-1.58,10.78.86,3.02,3.69,5.74,6.99,5.48,3.51-.28,5.59-3.4,7.49-5.99,7.65-10.36,12.44-22.75,14.13-35.49.97-7.3.85-14.62-.27-21.89l-4.18,2.43c2.33,2.5,3.65,5.73,4.89,8.86.5,1.25,1.67,2.13,3.08,1.75,1.32-.36,2.09-1.77,1.75-3.08-1.43-5.45-4.45-10.42-8.66-14.16-2.07-1.84-5.4.48-3.93,3.03,3.48,6.01,5.5,12.75,5.83,19.69l4.66-1.26c-2.06-4.33-3.17-9.05-3.33-13.83l-4.27,1.77c.39.42.36.84.19,1.35l4.18-1.1c-2.13-2.72-3.87-5.75-5.29-8.89-1-2.21-4.93-1.16-4.66,1.26.66,5.81.28,11.62-1.22,17.27h4.82c-3.9-10.82-4.79-22.55-2.41-33.81l-4.18,1.1c5.63,6.78,9.75,14.73,12.16,23.2l4.57-1.93c-4.91-9.29-10.11-18.93-18.58-25.48-1.07-.83-2.5-1.04-3.54,0s-.91,2.53,0,3.54c8.82,9.72,18.22,18.89,28.17,27.45.85.73,2.02.98,3.03.39.89-.52,1.54-1.8,1.15-2.82-2.85-7.48-8.65-12.86-15.04-17.41-7.34-5.22-15.12-9.87-22.69-14.73-2.72-1.74-5.23,2.58-2.52,4.32h0Z"/>
    <path class="cls-3" d="m223.55,369.9c2.8.69,4.44,3.66,6.12,5.8,1.98,2.54,4.45,4.54,7.12,6.33,4.84,3.23,10.78,5.75,13.81,10.99l2.82-3.67c-2.13-.33-4.05-1.22-6-2.08-2.2-.96-4.41-1.93-6.61-2.89-4.33-1.9-8.67-3.79-13-5.69-1.14-.5-2.42-.43-3.23.64-.72.97-.73,2.41.2,3.28,9.91,9.36,20.88,17.58,32.65,24.45,2.43,1.42,5.11-1.93,3.03-3.93-8.6-8.25-17.55-16.11-26.85-23.56-.88-.71-2-1-3.03-.39-.89.52-1.54,1.8-1.15,2.82,4.47,11.56,13.21,21.26,24.45,26.58,2.29,1.09,4.54-1.11,3.42-3.42-4.58-9.43-10.51-18.15-17.54-25.92l-3.03,3.93c3.73,2.16,6.43,5.74,7.41,9.94,1.07,4.57-.23,9.32-3.04,13.01l2.16-1.24s.16.08.16.07c-.09-.35-.43-.73-.58-1.08-.47-1.11-.83-2.28-1.18-3.44-.75-2.46-1.33-4.98-1.73-7.52-.76-4.84-.8-9.88-.13-14.73l-1.75,1.75c.49-.1,1.92,3.87,2.16,4.25,1.22,1.93,3.11,3.34,5.29,4.03,4.24,1.33,8.99-.83,10.98-4.75.64-1.27.21-3.42-1.49-3.67-1.94-.28-3.86-.35-5.81-.36-1.66-.01-3.36.01-4.97-.41-2.03-.54-4.27-2.01-4.15-4.29l-4.66,1.26c2.72,4.93,6.85,9.01,11.83,11.64,2.84,1.5,5.37-2.81,2.52-4.32-4.27-2.26-7.7-5.62-10.03-9.85-1.26-2.28-4.53-1.11-4.66,1.26-.21,3.79,2.58,6.94,5.89,8.4,4.1,1.81,8.42.86,12.71,1.49l-1.49-3.67c-1.37,2.7-4.81,3.63-7.08,1.38-1.3-1.29-1.5-3.27-2.54-4.74-1.37-1.93-3.46-2.95-5.81-2.46-.75.15-1.64.96-1.75,1.75-.69,5.04-.82,10.09-.18,15.15s1.62,10.14,3.81,14.6c.97,1.98,3.56,4.31,5.92,2.93.96-.56,1.69-1.94,2.24-2.89.61-1.05,1.1-2.18,1.52-3.32,1.56-4.21,1.65-9.09.16-13.33-1.65-4.68-4.89-8.65-9.19-11.14-2.51-1.46-4.91,1.85-3.03,3.93,6.75,7.46,12.37,15.85,16.76,24.9l3.42-3.42c-10.01-4.75-18.14-13.22-22.15-23.59l-4.18,2.43c9.3,7.45,18.25,15.31,26.85,23.56l3.03-3.93c-11.42-6.66-22.03-14.59-31.64-23.67l-3.03,3.93c4.49,1.96,8.97,3.92,13.46,5.89,2.2.96,4.41,1.93,6.61,2.89s4.37,2.01,6.74,2.38c2.06.32,4-1.63,2.82-3.67-3.46-5.97-9.77-8.94-15.31-12.59-2.56-1.69-4.79-3.62-6.65-6.07-2.17-2.86-4.39-5.85-8.07-6.75-3.12-.77-4.46,4.05-1.33,4.82h0Z"/>
    <path class="cls-3" d="m268.39,466.43c1.04,17.91,3.99,35.7,8.82,52.98.87,3.11,5.51,1.8,4.82-1.33-4.03-18.43-8.42-36.78-13.16-55.04-1.35-5.18-2.72-10.36-4.13-15.52-.84-3.1-5.65-1.79-4.82,1.33,4.68,17.49,10.37,34.7,17.07,51.51,1.71,4.29,3.32,8.57,7.15,11.42,1.22.91,3.42,0,3.67-1.49,2.97-17.65,2.96-35.61-.01-53.26-.2-1.21-1.63-1.96-2.74-1.79-1.32.2-2.02,1.18-2.17,2.46-1.63,13.79-.51,27.68.63,41.46l4.66-1.26c-8.51-16.3-17.2-32.72-29.61-46.45-1.45-1.6-4.33-.35-4.27,1.77.58,18.85,4.54,37.56,11.73,55,.43,1.04,1.21,1.84,2.41,1.84,1,0,2.26-.77,2.41-1.84,1.1-7.84,1.81-15.71,2.04-23.62.11-3.92.11-7.85,0-11.77-.09-3.09-.42-6.47,1.15-9.27l-3.93.51c1.87,1.78,3.11,4.03,4.11,6.4,1.17,2.77,2.16,5.63,3.2,8.45,2.25,6.09,4.42,12.21,6.53,18.35,1.04,3.04,5.49,1.83,4.82-1.33-2.5-11.75-6.73-23.1-12.49-33.65-1.23-2.26-4.57-1.12-4.66,1.26-.2,5.24.53,10.5,2.16,15.49.91,2.78,4.63,2.1,4.91-.66,1.01-10.15,1.2-20.37.55-30.55-.2-3.18-5.11-3.24-5,0,.38,11.37,2.94,22.48,7.47,32.91,1.03,2.36,4.67,1.05,4.66-1.26-.05-8.95-.64-17.89-1.75-26.77-.17-1.34-1.03-2.5-2.5-2.5-1.27,0-2.61,1.15-2.5,2.5.88,10.85,4.17,21.37,9.74,30.73,1.22,2.05,4.79,1.28,4.66-1.26-.49-9.73-2.16-19.39-5.03-28.71l-4.57,1.93c2.96,6.68,5.93,13.36,8.89,20.04,1.03,2.31,4.73,1.09,4.66-1.26-.28-8.7-2.76-17.22-7.23-24.69-1.65-2.76-5.98-.25-4.32,2.52,4.03,6.72,6.29,14.33,6.55,22.16l4.66-1.26c-2.96-6.68-5.93-13.36-8.89-20.04-1.15-2.6-5.39-.75-4.57,1.93,2.74,8.9,4.38,18.08,4.85,27.38l4.66-1.26c-5.1-8.58-8.25-18.25-9.06-28.2h-5c1.12,8.88,1.7,17.82,1.75,26.77l4.66-1.26c-4.16-9.58-6.44-19.96-6.79-30.39h-5c.65,10.18.46,20.4-.55,30.55l4.91-.66c-1.5-4.61-2.16-9.32-1.98-14.16l-4.66,1.26c5.56,10.18,9.57,21.11,11.98,32.45l4.82-1.33c-2.22-6.45-4.5-12.88-6.87-19.27-2.07-5.58-3.81-11.9-8.25-16.13-1.15-1.09-3.12-.93-3.93.51-1.77,3.15-1.97,6.72-1.88,10.26.1,3.94.17,7.88.08,11.83-.17,7.95-.79,15.89-1.89,23.77h4.82c-7.03-17.04-10.98-35.24-11.55-53.67l-4.27,1.77c12.11,13.39,20.53,29.54,28.83,45.44,1.11,2.13,4.86,1.22,4.66-1.26-1.14-13.78-2.26-27.67-.63-41.46l-4.91.66c2.82,16.7,2.82,33.9.01,50.6l3.67-1.49c-2.71-2.02-3.84-5.88-5.03-8.88-1.6-4.02-3.14-8.06-4.62-12.12-2.96-8.13-5.7-16.33-8.2-24.61-1.44-4.75-2.79-9.53-4.07-14.33l-4.82,1.33c4.95,18.21,9.54,36.5,13.77,54.89,1.2,5.22,2.37,10.44,3.52,15.67l4.82-1.33c-4.71-16.86-7.62-34.17-8.64-51.65-.19-3.2-5.19-3.22-5,0h0Z"/>
    <path class="cls-3" d="m251.26,501.15c2.28,7.2,6.49,13.7,12.23,18.63,1.56,1.34,4.32.53,4.27-1.77-.24-10.29-.48-20.59-.71-30.88h-5c.34,11.63,2.21,23.21,5.6,34.34.62,2.03,3.47,2.49,4.57.6,1.77-3.04,2.15-6.52,2.21-9.98.07-3.97.05-7.95.06-11.92.02-8.03,0-16.06-.06-24.09h-5c.77,9.63,1.28,19.28,1.52,28.93l4.66-1.26c-6.4-8.78-12.12-18.04-17.12-27.7-1.32-2.55-5.28-.77-4.57,1.93,3.39,12.83,8.06,25.31,13.88,37.24.59,1.21,2.32,1.54,3.42.9,1.24-.73,1.49-2.2.9-3.42-3.28-6.76-7.16-13.21-11.59-19.28-1.4-1.92-4.62-1.38-4.66,1.26-.13,8.59,2.02,17.08,6.18,24.59,1.37,2.47,5.38.8,4.57-1.93-2.01-6.76-4.01-13.52-6.02-20.28-.35-1.18-1.51-1.98-2.74-1.79-1.11.17-2.31,1.2-2.17,2.46,1.23,10.81,4.6,21.12,8.07,31.38l3.67-2.82c-7.39-4.69-11.6-12.78-15.56-20.29l-4.32,2.52c3.08,5.75,7.27,10.89,12.29,15.04.96.79,2.25,1.02,3.28.2.93-.74,1.34-2.17.64-3.23-3-4.56-5.52-9.42-7.41-14.54l-4.57,1.93c3.9,6.8,8.66,13.1,14.14,18.72,1.28,1.32,3.74.73,4.18-1.1,3.32-13.95-.66-28.47,2.79-42.36l-1.75,1.75c-.46.07-.12.1.09.36s.48.75.65,1.13c.69,1.59,1,3.41,1.45,5.08,1.04,3.86,2.09,7.71,3.13,11.57l4.18-2.43c-4.16-4.93-8.31-9.86-12.47-14.79-1.28-1.51-3.65-.55-4.18,1.1-2.51,7.95-3.09,16.36-1.85,24.59.29,1.94.7,3.86,1.21,5.75s1.33,3.69,1.63,5.59c.14.87.16,2.54-.84,2.98-1.23.54-3.13-.96-4.02-1.65-2.97-2.33-5-5.61-5.91-9.26-.78-3.12-5.6-1.8-4.82,1.33,1.01,4.05,3.19,7.82,6.26,10.66s8.13,5.83,12.01,2.51,2.01-8.37.82-12.4c-1.29-4.36-1.96-8.85-2-13.39-.05-5.24.75-10.39,2.33-15.38l-4.18,1.1c4.16,4.93,8.31,9.86,12.47,14.79,1.67,1.98,4.8-.15,4.18-2.43-1.31-4.82-2.61-9.64-3.92-14.46-1.02-3.76-2.98-7.84-7.56-7.17-.82.12-1.56.99-1.75,1.75-3.45,13.94.53,28.45-2.79,42.36l4.18-1.1c-5.19-5.32-9.66-11.25-13.35-17.7-1.37-2.39-5.58-.79-4.57,1.93,2.05,5.53,4.67,10.81,7.92,15.74l3.93-3.03c-4.74-3.91-8.61-8.62-11.51-14.03-1.52-2.84-5.82-.32-4.32,2.52,4.4,8.34,9.19,16.9,17.35,22.08,1.79,1.14,4.37-.76,3.67-2.82-3.31-9.8-6.72-19.73-7.89-30.05l-4.91.66c2.01,6.76,4.01,13.52,6.02,20.28l4.57-1.93c-3.74-6.75-5.62-14.34-5.5-22.06l-4.66,1.26c4.43,6.07,8.3,12.52,11.59,19.28l4.32-2.52c-5.63-11.55-10.09-23.62-13.38-36.04l-4.57,1.93c4.99,9.66,10.71,18.92,17.12,27.7.66.91,1.68,1.46,2.82,1.15,1.04-.29,1.86-1.32,1.84-2.41-.24-9.66-.75-19.3-1.52-28.93-.25-3.16-5.02-3.26-5,0,.05,7.7.07,15.4.06,23.09,0,3.81-.02,7.61-.05,11.42-.02,3.04.03,6.24-1.54,8.95l4.57.6c-3.27-10.73-5.1-21.8-5.42-33.01-.09-3.21-5.07-3.23-5,0,.24,10.29.48,20.59.71,30.88l4.27-1.77c-5.1-4.38-8.91-10.01-10.94-16.42-.97-3.06-5.8-1.75-4.82,1.33h0Z"/>
    <path class="cls-3" d="m246.97,521.85c3.22,0,3.22-5,0-5s-3.22,5,0,5h0Z"/>
    <path class="cls-3" d="m248.44,521.85c3.22,0,3.22-5,0-5s-3.22,5,0,5h0Z"/>
    <path class="cls-3" d="m241.82,380.68c3.22,0,3.22-5,0-5s-3.22,5,0,5h0Z"/>
  </g>
</svg>