<?xml version="1.0" encoding="UTF-8"?>
<svg xmlns="http://www.w3.org/2000/svg" xmlns:xlink="http://www.w3.org/1999/xlink" viewBox="0 0 501.09 900">
  <defs>
    <style>
      .cls-1 {
        fill: url(#linear-gradient);
      }

      .cls-1, .cls-2, .cls-3, .cls-4 {
        stroke-width: 0px;
      }

      .cls-2 {
        fill: #fff200;
      }

      .cls-3 {
        fill: #fff;
      }

      .cls-5 {
        font-size: 36px;
      }

      .cls-5, .cls-6 {
        fill: #0fe823;
        font-family: BebasNeue-Regular, 'Bebas Neue';
      }

      .cls-6 {
        font-size: 150px;
      }

      .cls-4 {
        fill: #da36f2;
      }
    </style>
    <linearGradient id="linear-gradient" x1="0" y1="450" x2="500" y2="450" gradientUnits="userSpaceOnUse">
      <stop offset=".04" stop-color="#00d490"/>
      <stop offset=".13" stop-color="#09b98d"/>
      <stop offset=".3" stop-color="#227488"/>
      <stop offset=".56" stop-color="#4a0780"/>
      <stop offset="1" stop-color="#4d007f"/>
    </linearGradient>
  </defs>
  <g id="Layer_3" data-name="Layer 3">
    <rect class="cls-1" width="500" height="900"/>
    <path class="cls-4" d="m47.21,97.09c3.22,0,3.22-5,0-5s-3.22,5,0,5h0Z"/>
    <path class="cls-4" d="m83.97,64.74c3.22,0,3.22-5,0-5s-3.22,5,0,5h0Z"/>
    <path class="cls-4" d="m136.18,78.71c3.22,0,3.22-5,0-5s-3.22,5,0,5h0Z"/>
    <path class="cls-4" d="m100.88,131.65c3.22,0,3.22-5,0-5s-3.22,5,0,5h0Z"/>
    <path class="cls-4" d="m190.59,130.18c3.22,0,3.22-5,0-5s-3.22,5,0,5h0Z"/>
    <path class="cls-4" d="m263.38,77.24c3.22,0,3.22-5,0-5s-3.22,5,0,5h0Z"/>
    <path class="cls-4" d="m330.29,52.24h1.47c.34.01.67-.06.96-.22.31-.1.58-.27.8-.52.24-.23.42-.49.52-.8.16-.3.23-.62.22-.96l-.09-.66c-.12-.42-.33-.79-.64-1.1l-.51-.39c-.39-.23-.81-.34-1.26-.34h-1.47c-.34-.01-.67.06-.96.22-.31.1-.58.27-.8.52-.24.23-.42.49-.52.8-.16.3-.23.62-.22.96l.09.66c.12.42.33.79.64,1.1l.51.39c.39.23.81.34,1.26.34h0Z"/>
    <path class="cls-4" d="m419.26,89c3.22,0,3.22-5,0-5s-3.22,5,0,5h0Z"/>
    <path class="cls-4" d="m439.85,175.03c3.22,0,3.22-5,0-5s-3.22,5,0,5h0Z"/>
    <path class="cls-4" d="m364.12,211.06c3.22,0,3.22-5,0-5s-3.22,5,0,5h0Z"/>
    <path class="cls-4" d="m361.18,141.94c3.22,0,3.22-5,0-5s-3.22,5,0,5h0Z"/>
    <path class="cls-4" d="m294.26,124.29c3.22,0,3.22-5,0-5s-3.22,5,0,5h0Z"/>
    <path class="cls-4" d="m383.97,149.29c3.22,0,3.22-5,0-5s-3.22,5,0,5h0Z"/>
    <path class="cls-4" d="m406.76,235.32c3.22,0,3.22-5,0-5s-3.22,5,0,5h0Z"/>
    <path class="cls-4" d="m350.15,333.85c3.22,0,3.22-5,0-5s-3.22,5,0,5h0Z"/>
    <path class="cls-4" d="m233.24,347.82c3.22,0,3.22-5,0-5s-3.22,5,0,5h0Z"/>
    <path class="cls-4" d="m226.62,295.62c3.22,0,3.22-5,0-5s-3.22,5,0,5h0Z"/>
    <path class="cls-4" d="m251.62,255.91c3.22,0,3.22-5,0-5s-3.22,5,0,5h0Z"/>
    <path class="cls-4" d="m177.35,219.15c3.22,0,3.22-5,0-5s-3.22,5,0,5h0Z"/>
    <path class="cls-4" d="m183.24,157.38c3.22,0,3.22-5,0-5s-3.22,5,0,5h0Z"/>
    <path class="cls-4" d="m99.41,179.44c3.22,0,3.22-5,0-5s-3.22,5,0,5h0Z"/>
    <path class="cls-4" d="m53.09,202.97c3.22,0,3.22-5,0-5s-3.22,5,0,5h0Z"/>
    <path class="cls-4" d="m40.59,266.21c3.22,0,3.22-5,0-5s-3.22,5,0,5h0Z"/>
    <path class="cls-4" d="m36.18,345.62c3.22,0,3.22-5,0-5s-3.22,5,0,5h0Z"/>
    <path class="cls-4" d="m122.94,350.76c3.22,0,3.22-5,0-5s-3.22,5,0,5h0Z"/>
    <path class="cls-4" d="m81.03,272.09c3.22,0,3.22-5,0-5s-3.22,5,0,5h0Z"/>
    <path class="cls-4" d="m152.35,323.56c3.22,0,3.22-5,0-5s-3.22,5,0,5h0Z"/>
    <path class="cls-4" d="m224.41,372.82c3.22,0,3.22-5,0-5s-3.22,5,0,5h0Z"/>
    <path class="cls-4" d="m317.79,375.03c3.22,0,3.22-5,0-5s-3.22,5,0,5h0Z"/>
    <path class="cls-4" d="m282.5,405.91c3.22,0,3.22-5,0-5s-3.22,5,0,5h0Z"/>
    <path class="cls-4" d="m270,444.88c3.22,0,3.22-5,0-5s-3.22,5,0,5h0Z"/>
    <path class="cls-4" d="m262.65,543.41c3.22,0,3.22-5,0-5s-3.22,5,0,5h0Z"/>
    <path class="cls-4" d="m217.79,558.12c3.22,0,3.22-5,0-5s-3.22,5,0,5h0Z"/>
    <path class="cls-4" d="m160.44,558.12c3.22,0,3.22-5,0-5s-3.22,5,0,5h0Z"/>
    <path class="cls-4" d="m86.91,545.62c3.22,0,3.22-5,0-5s-3.22,5,0,5h0Z"/>
    <path class="cls-4" d="m81.03,497.09c3.22,0,3.22-5,0-5s-3.22,5,0,5h0Z"/>
    <path class="cls-4" d="m34.71,473.56c3.22,0,3.22-5,0-5s-3.22,5,0,5h0Z"/>
    <path class="cls-4" d="m58.24,426.5c3.22,0,3.22-5,0-5s-3.22,5,0,5h0Z"/>
    <path class="cls-4" d="m91.32,375.76c3.22,0,3.22-5,0-5s-3.22,5,0,5h0Z"/>
    <path class="cls-4" d="m124.41,397.09c3.22,0,3.22-5,0-5s-3.22,5,0,5h0Z"/>
    <path class="cls-4" d="m42.06,543.41c3.22,0,3.22-5,0-5s-3.22,5,0,5h0Z"/>
    <path class="cls-4" d="m25.88,590.47c3.22,0,3.22-5,0-5s-3.22,5,0,5h0Z"/>
    <path class="cls-4" d="m71.47,602.97c3.22,0,3.22-5,0-5s-3.22,5,0,5h0Z"/>
    <path class="cls-4" d="m30.29,675.76c3.22,0,3.22-5,0-5s-3.22,5,0,5h0Z"/>
    <path class="cls-4" d="m89.12,706.65c3.22,0,3.22-5,0-5s-3.22,5,0,5h0Z"/>
    <path class="cls-4" d="m125.88,676.5c3.22,0,3.22-5,0-5s-3.22,5,0,5h0Z"/>
    <path class="cls-4" d="m175.88,686.79c3.22,0,3.22-5,0-5s-3.22,5,0,5h0Z"/>
    <path class="cls-4" d="m266.32,664.74c3.22,0,3.22-5,0-5s-3.22,5,0,5h0Z"/>
    <path class="cls-4" d="m336.91,669.15c3.22,0,3.22-5,0-5s-3.22,5,0,5h0Z"/>
    <path class="cls-4" d="m61.91,735.32c3.22,0,3.22-5,0-5s-3.22,5,0,5h0Z"/>
    <path class="cls-4" d="m36.91,776.5c3.22,0,3.22-5,0-5s-3.22,5,0,5h0Z"/>
    <path class="cls-4" d="m52.06,814l.74.74c.23.24.49.42.8.52.3.16.62.23.96.22.34.01.67-.06.96-.22.31-.1.58-.27.8-.52l.39-.51c.23-.39.34-.81.34-1.26l-.09-.66c-.12-.42-.33-.79-.64-1.1l-.74-.74c-.23-.24-.49-.42-.8-.52-.3-.16-.62-.23-.96-.22-.34-.01-.67.06-.96.22-.31.1-.58.27-.8.52l-.39.51c-.23.39-.34.81-.34,1.26l.09.66c.12.42.33.79.64,1.1h0Z"/>
    <path class="cls-4" d="m67.06,830.18c3.22,0,3.22-5,0-5s-3.22,5,0,5h0Z"/>
    <path class="cls-4" d="m20.74,855.18c3.22,0,3.22-5,0-5s-3.22,5,0,5h0Z"/>
    <path class="cls-4" d="m93.53,873.56h.74c.34.01.67-.06.96-.22.31-.1.58-.27.8-.52.24-.23.42-.49.52-.8.16-.3.23-.62.22-.96l-.09-.66c-.12-.42-.33-.79-.64-1.1l-.51-.39c-.39-.23-.81-.34-1.26-.34h-.74c-.34-.01-.67.06-.96.22-.31.1-.58.27-.8.52-.24.23-.42.49-.52.8-.16.3-.23.62-.22.96l.09.66c.12.42.33.79.64,1.1l.51.39c.39.23.81.34,1.26.34h0Z"/>
    <path class="cls-4" d="m155.29,884.59c3.22,0,3.22-5,0-5s-3.22,5,0,5h0Z"/>
    <path class="cls-4" d="m258.97,889c3.22,0,3.22-5,0-5s-3.22,5,0,5h0Z"/>
    <path class="cls-4" d="m167.79,786.79c3.22,0,3.22-5,0-5s-3.22,5,0,5h0Z"/>
    <path class="cls-4" d="m227.35,814.74c3.22,0,3.22-5,0-5s-3.22,5,0,5h0Z"/>
    <path class="cls-4" d="m278.82,756.65c3.22,0,3.22-5,0-5s-3.22,5,0,5h0Z"/>
    <path class="cls-4" d="m361.91,758.12c3.22,0,3.22-5,0-5s-3.22,5,0,5h0Z"/>
    <path class="cls-4" d="m417.79,724.29c3.22,0,3.22-5,0-5s-3.22,5,0,5h0Z"/>
    <path class="cls-4" d="m444.26,664c3.22,0,3.22-5,0-5s-3.22,5,0,5h0Z"/>
    <path class="cls-4" d="m400.15,575.18h-.74c-.34-.01-.67.06-.96.22-.31.1-.58.27-.8.52-.24.23-.42.49-.52.8-.16.3-.23.62-.22.96l.09.66c.12.42.33.79.64,1.1l.51.39c.39.23.81.34,1.26.34h.74c.34.01.67-.06.96-.22.31-.1.58-.27.8-.52.24-.23.42-.49.52-.8.16-.3.23-.62.22-.96l-.09-.66c-.12-.42-.33-.79-.64-1.1l-.51-.39c-.39-.23-.81-.34-1.26-.34h0Z"/>
    <path class="cls-4" d="m331.76,567.68c3.22,0,3.22-5,0-5s-3.22,5,0,5h0Z"/>
    <path class="cls-4" d="m422.21,519.15c3.22,0,3.22-5,0-5s-3.22,5,0,5h0Z"/>
    <path class="cls-4" d="m364.12,458.85c3.22,0,3.22-5,0-5s-3.22,5,0,5h0Z"/>
    <path class="cls-4" d="m388.38,372.82c3.22,0,3.22-5,0-5s-3.22,5,0,5h0Z"/>
    <path class="cls-4" d="m383.24,288.26c3.22,0,3.22-5,0-5s-3.22,5,0,5h0Z"/>
    <path class="cls-4" d="m303.82,300.03c3.22,0,3.22-5,0-5s-3.22,5,0,5h0Z"/>
    <path class="cls-4" d="m425.88,303.71c3.22,0,3.22-5,0-5s-3.22,5,0,5h0Z"/>
    <path class="cls-4" d="m473.68,230.18c3.22,0,3.22-5,0-5s-3.22,5,0,5h0Z"/>
    <path class="cls-4" d="m477.65,113.71v-2.21c.01-.34-.06-.67-.22-.96-.1-.31-.27-.58-.52-.8-.23-.24-.49-.42-.8-.52-.3-.16-.62-.23-.96-.22l-.66.09c-.42.12-.79.33-1.1.64l-.39.51c-.23.39-.34.81-.34,1.26v2.21c-.01.34.06.67.22.96.1.31.27.58.52.8.23.24.49.42.8.52.3.16.62.23.96.22l.66-.09c.42-.12.79-.33,1.1-.64l.39-.51c.23-.39.34-.81.34-1.26h0Z"/>
    <path class="cls-4" d="m474.41,57.38c3.22,0,3.22-5,0-5s-3.22,5,0,5h0Z"/>
    <path class="cls-4" d="m412.65,22.82c3.22,0,3.22-5,0-5s-3.22,5,0,5h0Z"/>
    <path class="cls-4" d="m218.53,28.71c3.22,0,3.22-5,0-5s-3.22,5,0,5h0Z"/>
    <path class="cls-4" d="m290.59,15.47c3.22,0,3.22-5,0-5s-3.22,5,0,5h0Z"/>
    <path class="cls-4" d="m121.47,16.21c3.22,0,3.22-5,0-5s-3.22,5,0,5h0Z"/>
    <path class="cls-4" d="m498.68,486.06c3.22,0,3.22-5,0-5s-3.22,5,0,5h0Z"/>
    <path class="cls-4" d="m429.56,402.24c3.22,0,3.22-5,0-5s-3.22,5,0,5h0Z"/>
    <path class="cls-4" d="m485.44,567.68c3.22,0,3.22-5,0-5s-3.22,5,0,5h0Z"/>
    <path class="cls-4" d="m349.41,881.65c3.22,0,3.22-5,0-5s-3.22,5,0,5h0Z"/>
    <path class="cls-4" d="m420.74,824.29c3.22,0,3.22-5,0-5s-3.22,5,0,5h0Z"/>
    <path class="cls-4" d="m422.21,888.26c3.22,0,3.22-5,0-5s-3.22,5,0,5h0Z"/>
    <path class="cls-4" d="m464.12,858.85c3.22,0,3.22-5,0-5s-3.22,5,0,5h0Z"/>
    <path class="cls-4" d="m465.59,801.5c3.22,0,3.22-5,0-5s-3.22,5,0,5h0Z"/>
    <path class="cls-4" d="m477.35,743.41c3.22,0,3.22-5,0-5s-3.22,5,0,5h0Z"/>
    <path class="cls-4" d="m403.09,851.5c3.22,0,3.22-5,0-5s-3.22,5,0,5h0Z"/>
    <path class="cls-4" d="m486.18,890.47c3.22,0,3.22-5,0-5s-3.22,5,0,5h0Z"/>
    <path class="cls-4" d="m456.03,594.15c3.22,0,3.22-5,0-5s-3.22,5,0,5h0Z"/>
    <path class="cls-3" d="m451.62,491.21c3.22,0,3.22-5,0-5s-3.22,5,0,5h0Z"/>
    <path class="cls-3" d="m458.97,422.82c3.22,0,3.22-5,0-5s-3.22,5,0,5h0Z"/>
    <path class="cls-3" d="m457.5,346.35c3.22,0,3.22-5,0-5s-3.22,5,0,5h0Z"/>
    <path class="cls-3" d="m413.38,336.79c3.22,0,3.22-5,0-5s-3.22,5,0,5h0Z"/>
    <path class="cls-3" d="m445.74,272.09c3.22,0,3.22-5,0-5s-3.22,5,0,5h0Z"/>
    <path class="cls-3" d="m379.56,247.09c3.22,0,3.22-5,0-5s-3.22,5,0,5h0Z"/>
    <path class="cls-3" d="m410.44,213.26c3.22,0,3.22-5,0-5s-3.22,5,0,5h0Z"/>
    <path class="cls-3" d="m270.74,171.35c3.22,0,3.22-5,0-5s-3.22,5,0,5h0Z"/>
    <path class="cls-3" d="m244.26,125.76c3.22,0,3.22-5,0-5s-3.22,5,0,5h0Z"/>
    <path class="cls-3" d="m174.41,45.62c3.22,0,3.22-5,0-5s-3.22,5,0,5h0Z"/>
    <path class="cls-3" d="m103.09,66.21c3.22,0,3.22-5,0-5s-3.22,5,0,5h0Z"/>
    <path class="cls-3" d="m24.41,47.82c3.22,0,3.22-5,0-5s-3.22,5,0,5h0Z"/>
    <path class="cls-3" d="m66.32,25.03c3.22,0,3.22-5,0-5s-3.22,5,0,5h0Z"/>
    <path class="cls-3" d="m75.88,119.15c3.22,0,3.22-5,0-5s-3.22,5,0,5h0Z"/>
    <path class="cls-3" d="m45,164.74c3.22,0,3.22-5,0-5s-3.22,5,0,5h0Z"/>
    <path class="cls-3" d="m81.03,191.21c3.22,0,3.22-5,0-5s-3.22,5,0,5h0Z"/>
    <path class="cls-3" d="m58.97,243.41c3.22,0,3.22-5,0-5s-3.22,5,0,5h0Z"/>
    <path class="cls-3" d="m92.79,254.44c3.22,0,3.22-5,0-5s-3.22,5,0,5h0Z"/>
    <path class="cls-3" d="m73.68,333.85c3.22,0,3.22-5,0-5s-3.22,5,0,5h0Z"/>
    <path class="cls-3" d="m35.44,314.74c3.22,0,3.22-5,0-5s-3.22,5,0,5h0Z"/>
    <path class="cls-3" d="m128.82,295.62c3.22,0,3.22-5,0-5s-3.22,5,0,5h0Z"/>
    <path class="cls-3" d="m164.12,352.24c3.22,0,3.22-5,0-5s-3.22,5,0,5h0Z"/>
    <path class="cls-3" d="m184.71,309.59c3.22,0,3.22-5,0-5s-3.22,5,0,5h0Z"/>
    <path class="cls-3" d="m100.88,405.91c3.22,0,3.22-5,0-5s-3.22,5,0,5h0Z"/>
    <path class="cls-3" d="m49.41,398.56c3.22,0,3.22-5,0-5s-3.22,5,0,5h0Z"/>
    <path class="cls-3" d="m55.29,485.32c3.22,0,3.22-5,0-5s-3.22,5,0,5h0Z"/>
    <path class="cls-3" d="m47.21,519.88c3.22,0,3.22-5,0-5s-3.22,5,0,5h0Z"/>
    <path class="cls-3" d="m65.59,580.91c3.22,0,3.22-5,0-5s-3.22,5,0,5h0Z"/>
    <path class="cls-3" d="m127.35,583.85c3.22,0,3.22-5,0-5s-3.22,5,0,5h0Z"/>
    <path class="cls-3" d="m155.29,545.62c3.22,0,3.22-5,0-5s-3.22,5,0,5h0Z"/>
    <path class="cls-3" d="m199.41,537.53c3.22,0,3.22-5,0-5s-3.22,5,0,5h0Z"/>
    <path class="cls-3" d="m193.53,469.88c3.22,0,3.22-5,0-5s-3.22,5,0,5h0Z"/>
    <path class="cls-3" d="m189.85,407.38c3.22,0,3.22-5,0-5s-3.22,5,0,5h0Z"/>
    <path class="cls-3" d="m265.59,366.21c3.22,0,3.22-5,0-5s-3.22,5,0,5h0Z"/>
    <path class="cls-3" d="m303.82,329.44c3.22,0,3.22-5,0-5s-3.22,5,0,5h0Z"/>
    <path class="cls-3" d="m263.38,303.71c3.22,0,3.22-5,0-5s-3.22,5,0,5h0Z"/>
    <path class="cls-3" d="m314.85,133.12c3.22,0,3.22-5,0-5s-3.22,5,0,5h0Z"/>
    <path class="cls-3" d="m367.06,80.18c3.22,0,3.22-5,0-5s-3.22,5,0,5h0Z"/>
    <path class="cls-3" d="m358.24,46.35c3.22,0,3.22-5,0-5s-3.22,5,0,5h0Z"/>
    <path class="cls-3" d="m436.18,555.91c3.22,0,3.22-5,0-5s-3.22,5,0,5h0Z"/>
    <path class="cls-3" d="m381.03,555.18c3.22,0,3.22-5,0-5s-3.22,5,0,5h0Z"/>
    <path class="cls-3" d="m361.18,580.18c3.22,0,3.22-5,0-5s-3.22,5,0,5h0Z"/>
    <path class="cls-3" d="m295,656.65c3.22,0,3.22-5,0-5s-3.22,5,0,5h0Z"/>
    <path class="cls-3" d="m234.71,640.47c3.22,0,3.22-5,0-5s-3.22,5,0,5h0Z"/>
    <path class="cls-3" d="m207.5,666.21c3.22,0,3.22-5,0-5s-3.22,5,0,5h0Z"/>
    <path class="cls-3" d="m106.03,721.35c3.22,0,3.22-5,0-5s-3.22,5,0,5h0Z"/>
    <path class="cls-3" d="m106.03,687.53c3.22,0,3.22-5,0-5s-3.22,5,0,5h0Z"/>
    <path class="cls-3" d="m53.82,722.09c3.22,0,3.22-5,0-5s-3.22,5,0,5h0Z"/>
    <path class="cls-3" d="m40.59,695.62c3.22,0,3.22-5,0-5s-3.22,5,0,5h0Z"/>
    <path class="cls-3" d="m46.47,625.76c3.22,0,3.22-5,0-5s-3.22,5,0,5h0Z"/>
    <path class="cls-3" d="m28.09,758.12c3.22,0,3.22-5,0-5s-3.22,5,0,5h0Z"/>
    <path class="cls-3" d="m23.68,726.5c3.22,0,3.22-5,0-5s-3.22,5,0,5h0Z"/>
    <path class="cls-3" d="m55.29,768.41c3.22,0,3.22-5,0-5s-3.22,5,0,5h0Z"/>
    <path class="cls-3" d="m39.85,811.79c3.22,0,3.22-5,0-5s-3.22,5,0,5h0Z"/>
    <path class="cls-3" d="m16.32,886.79c3.22,0,3.22-5,0-5s-3.22,5,0,5h0Z"/>
    <path class="cls-3" d="m78.82,883.85c3.22,0,3.22-5,0-5s-3.22,5,0,5h0Z"/>
    <path class="cls-3" d="m53.82,864.74c3.22,0,3.22-5,0-5s-3.22,5,0,5h0Z"/>
    <path class="cls-3" d="m108.97,864c3.22,0,3.22-5,0-5s-3.22,5,0,5h0Z"/>
    <path class="cls-3" d="m131.03,883.85c3.22,0,3.22-5,0-5s-3.22,5,0,5h0Z"/>
    <path class="cls-3" d="m205.29,888.26c3.22,0,3.22-5,0-5s-3.22,5,0,5h0Z"/>
    <path class="cls-3" d="m189.12,825.76c3.22,0,3.22-5,0-5s-3.22,5,0,5h0Z"/>
    <path class="cls-3" d="m145.74,806.65c3.22,0,3.22-5,0-5s-3.22,5,0,5h0Z"/>
    <path class="cls-3" d="m205.29,777.97c3.22,0,3.22-5,0-5s-3.22,5,0,5h0Z"/>
    <path class="cls-3" d="m290.59,812.53c3.22,0,3.22-5,0-5s-3.22,5,0,5h0Z"/>
    <path class="cls-3" d="m255.29,766.94c3.22,0,3.22-5,0-5s-3.22,5,0,5h0Z"/>
    <path class="cls-3" d="m346.47,780.91c3.22,0,3.22-5,0-5s-3.22,5,0,5h0Z"/>
    <path class="cls-3" d="m313.38,742.68c3.22,0,3.22-5,0-5s-3.22,5,0,5h0Z"/>
    <path class="cls-3" d="m312.65,791.21c3.22,0,3.22-5,0-5s-3.22,5,0,5h0Z"/>
    <path class="cls-3" d="m383.24,740.47c3.22,0,3.22-5,0-5s-3.22,5,0,5h0Z"/>
    <path class="cls-3" d="m431.76,722.82c3.22,0,3.22-5,0-5s-3.22,5,0,5h0Z"/>
    <path class="cls-3" d="m425.88,675.76c3.22,0,3.22-5,0-5s-3.22,5,0,5h0Z"/>
    <path class="cls-3" d="m440.59,639c3.22,0,3.22-5,0-5s-3.22,5,0,5h0Z"/>
    <path class="cls-3" d="m472.21,658.85c3.22,0,3.22-5,0-5s-3.22,5,0,5h0Z"/>
    <path class="cls-3" d="m474.41,555.18c3.22,0,3.22-5,0-5s-3.22,5,0,5h0Z"/>
    <path class="cls-3" d="m361.91,389c3.22,0,3.22-5,0-5s-3.22,5,0,5h0Z"/>
    <path class="cls-3" d="m375.15,332.38c3.22,0,3.22-5,0-5s-3.22,5,0,5h0Z"/>
    <path class="cls-3" d="m345.74,300.76c3.22,0,3.22-5,0-5s-3.22,5,0,5h0Z"/>
    <path class="cls-3" d="m458.97,777.24c3.22,0,3.22-5,0-5s-3.22,5,0,5h0Z"/>
    <path class="cls-3" d="m482.5,814.74c3.22,0,3.22-5,0-5s-3.22,5,0,5h0Z"/>
    <path class="cls-3" d="m449.41,855.18c3.22,0,3.22-5,0-5s-3.22,5,0,5h0Z"/>
    <path class="cls-3" d="m450.88,824.29c3.22,0,3.22-5,0-5s-3.22,5,0,5h0Z"/>
    <path class="cls-3" d="m428.82,858.85c3.22,0,3.22-5,0-5s-3.22,5,0,5h0Z"/>
    <path class="cls-3" d="m398.68,869.88c3.22,0,3.22-5,0-5s-3.22,5,0,5h0Z"/>
    <path class="cls-3" d="m361.18,861.79c3.22,0,3.22-5,0-5s-3.22,5,0,5h0Z"/>
    <path class="cls-3" d="m331.76,891.21c3.22,0,3.22-5,0-5s-3.22,5,0,5h0Z"/>
    <path class="cls-3" d="m304.56,880.18c3.22,0,3.22-5,0-5s-3.22,5,0,5h0Z"/>
    <path class="cls-2" d="m466.32,452.97c3.22,0,3.22-5,0-5s-3.22,5,0,5h0Z"/>
    <path class="cls-2" d="m475.15,373.56c3.22,0,3.22-5,0-5s-3.22,5,0,5h0Z"/>
    <path class="cls-2" d="m475.88,304.44c3.22,0,3.22-5,0-5s-3.22,5,0,5h0Z"/>
    <path class="cls-2" d="m411.91,271.35c3.22,0,3.22-5,0-5s-3.22,5,0,5h0Z"/>
    <path class="cls-2" d="m351.62,264c3.22,0,3.22-5,0-5s-3.22,5,0,5h0Z"/>
    <path class="cls-2" d="m387.65,204.44c3.22,0,3.22-5,0-5s-3.22,5,0,5h0Z"/>
    <path class="cls-2" d="m346.47,166.21c3.22,0,3.22-5,0-5s-3.22,5,0,5h0Z"/>
    <path class="cls-2" d="m180.29,97.09c3.22,0,3.22-5,0-5s-3.22,5,0,5h0Z"/>
    <path class="cls-2" d="m158.97,124.29c3.22,0,3.22-5,0-5s-3.22,5,0,5h0Z"/>
    <path class="cls-2" d="m231.03,103.71c3.22,0,3.22-5,0-5s-3.22,5,0,5h0Z"/>
    <path class="cls-2" d="m212.65,149.29c3.22,0,3.22-5,0-5s-3.22,5,0,5h0Z"/>
    <path class="cls-2" d="m137.35,24.74v1.47c-.01.34.06.67.22.96.1.31.27.58.52.8.23.24.49.42.8.52.3.16.62.23.96.22l.66-.09c.42-.12.79-.33,1.1-.64l.39-.51c.23-.39.34-.81.34-1.26v-1.47c.01-.34-.06-.67-.22-.96-.1-.31-.27-.58-.52-.8-.23-.24-.49-.42-.8-.52-.3-.16-.62-.23-.96-.22l-.66.09c-.42.12-.79.33-1.1.64l-.39.51c-.23.39-.34.81-.34,1.26h0Z"/>
    <path class="cls-2" d="m61.18,52.24c3.22,0,3.22-5,0-5s-3.22,5,0,5h0Z"/>
    <path class="cls-2" d="m36.91,20.62c3.22,0,3.22-5,0-5s-3.22,5,0,5h0Z"/>
    <path class="cls-2" d="m32.5,102.24c3.22,0,3.22-5,0-5s-3.22,5,0,5h0Z"/>
    <path class="cls-2" d="m80.29,156.65c3.22,0,3.22-5,0-5s-3.22,5,0,5h0Z"/>
    <path class="cls-2" d="m28.82,227.97c3.22,0,3.22-5,0-5s-3.22,5,0,5h0Z"/>
    <path class="cls-2" d="m87.65,231.65c3.22,0,3.22-5,0-5s-3.22,5,0,5h0Z"/>
    <path class="cls-2" d="m64.85,285.32c3.22,0,3.22-5,0-5s-3.22,5,0,5h0Z"/>
    <path class="cls-2" d="m20,295.62c3.22,0,3.22-5,0-5s-3.22,5,0,5h0Z"/>
    <path class="cls-2" d="m12.65,394.15c3.22,0,3.22-5,0-5s-3.22,5,0,5h0Z"/>
    <path class="cls-2" d="m47.94,370.62c3.22,0,3.22-5,0-5s-3.22,5,0,5h0Z"/>
    <path class="cls-2" d="m75.88,443.41c3.22,0,3.22-5,0-5s-3.22,5,0,5h0Z"/>
    <path class="cls-2" d="m85.44,419.88c3.22,0,3.22-5,0-5s-3.22,5,0,5h0Z"/>
    <path class="cls-2" d="m31.03,445.62c3.22,0,3.22-5,0-5s-3.22,5,0,5h0Z"/>
    <path class="cls-2" d="m56.03,517.68c3.22,0,3.22-5,0-5s-3.22,5,0,5h0Z"/>
    <path class="cls-2" d="m26.62,504.44c3.22,0,3.22-5,0-5s-3.22,5,0,5h0Z"/>
    <path class="cls-2" d="m104.56,526.5c3.22,0,3.22-5,0-5s-3.22,5,0,5h0Z"/>
    <path class="cls-2" d="m160.44,380.91c3.22,0,3.22-5,0-5s-3.22,5,0,5h0Z"/>
    <path class="cls-2" d="m211.18,340.47c3.22,0,3.22-5,0-5s-3.22,5,0,5h0Z"/>
    <path class="cls-2" d="m272.94,327.97c3.22,0,3.22-5,0-5s-3.22,5,0,5h0Z"/>
    <path class="cls-2" d="m261.18,396.35c3.22,0,3.22-5,0-5s-3.22,5,0,5h0Z"/>
    <path class="cls-2" d="m290.59,370.62c3.22,0,3.22-5,0-5s-3.22,5,0,5h0Z"/>
    <path class="cls-2" d="m184.71,247.82c3.22,0,3.22-5,0-5s-3.22,5,0,5h0Z"/>
    <path class="cls-2" d="m251.62,164.74c3.22,0,3.22-5,0-5s-3.22,5,0,5h0Z"/>
    <path class="cls-2" d="m449.41,202.97c3.22,0,3.22-5,0-5s-3.22,5,0,5h0Z"/>
    <path class="cls-2" d="m456.76,150.03c3.22,0,3.22-5,0-5s-3.22,5,0,5h0Z"/>
    <path class="cls-2" d="m381.76,112.53c3.22,0,3.22-5,0-5s-3.22,5,0,5h0Z"/>
    <path class="cls-2" d="m408.24,71.35c3.22,0,3.22-5,0-5s-3.22,5,0,5h0Z"/>
    <path class="cls-2" d="m456.76,32.38c3.22,0,3.22-5,0-5s-3.22,5,0,5h0Z"/>
    <path class="cls-2" d="m474.41,80.18c3.22,0,3.22-5,0-5s-3.22,5,0,5h0Z"/>
    <path class="cls-2" d="m343.53,21.35c3.22,0,3.22-5,0-5s-3.22,5,0,5h0Z"/>
    <path class="cls-2" d="m435.44,483.12c3.22,0,3.22-5,0-5s-3.22,5,0,5h0Z"/>
    <path class="cls-2" d="m485.44,512.53c3.22,0,3.22-5,0-5s-3.22,5,0,5h0Z"/>
    <path class="cls-2" d="m436.18,587.53c3.22,0,3.22-5,0-5s-3.22,5,0,5h0Z"/>
    <path class="cls-2" d="m486.91,623.56c3.22,0,3.22-5,0-5s-3.22,5,0,5h0Z"/>
    <path class="cls-2" d="m394.26,609.59c3.22,0,3.22-5,0-5s-3.22,5,0,5h0Z"/>
    <path class="cls-2" d="m295.74,572.82c3.22,0,3.22-5,0-5s-3.22,5,0,5h0Z"/>
    <path class="cls-2" d="m298.68,542.68c3.22,0,3.22-5,0-5s-3.22,5,0,5h0Z"/>
    <path class="cls-2" d="m252.35,563.26c3.22,0,3.22-5,0-5s-3.22,5,0,5h0Z"/>
    <path class="cls-2" d="m227.35,532.38c3.22,0,3.22-5,0-5s-3.22,5,0,5h0Z"/>
    <path class="cls-2" d="m158.97,588.26c3.22,0,3.22-5,0-5s-3.22,5,0,5h0Z"/>
    <path class="cls-2" d="m211.91,566.21c3.22,0,3.22-5,0-5s-3.22,5,0,5h0Z"/>
    <path class="cls-2" d="m187.65,646.35c3.22,0,3.22-5,0-5s-3.22,5,0,5h0Z"/>
    <path class="cls-2" d="m145.74,713.26c3.22,0,3.22-5,0-5s-3.22,5,0,5h0Z"/>
    <path class="cls-2" d="m200.88,697.09c3.22,0,3.22-5,0-5s-3.22,5,0,5h0Z"/>
    <path class="cls-2" d="m161.18,680.18c3.22,0,3.22-5,0-5s-3.22,5,0,5h0Z"/>
    <path class="cls-2" d="m86.18,692.68c3.22,0,3.22-5,0-5s-3.22,5,0,5h0Z"/>
    <path class="cls-2" d="m78.09,759.59c3.22,0,3.22-5,0-5s-3.22,5,0,5h0Z"/>
    <path class="cls-2" d="m66.32,800.03c3.22,0,3.22-5,0-5s-3.22,5,0,5h0Z"/>
    <path class="cls-2" d="m17.79,818.41c3.22,0,3.22-5,0-5s-3.22,5,0,5h0Z"/>
    <path class="cls-2" d="m12.65,697.82c3.22,0,3.22-5,0-5s-3.22,5,0,5h0Z"/>
    <path class="cls-2" d="m83.97,864c3.22,0,3.22-5,0-5s-3.22,5,0,5h0Z"/>
    <path class="cls-2" d="m48.68,892.68c3.22,0,3.22-5,0-5s-3.22,5,0,5h0Z"/>
    <path class="cls-2" d="m108.97,892.68c3.22,0,3.22-5,0-5s-3.22,5,0,5h0Z"/>
    <path class="cls-2" d="m199.41,805.18c3.22,0,3.22-5,0-5s-3.22,5,0,5h0Z"/>
    <path class="cls-2" d="m228.82,749.29c3.22,0,3.22-5,0-5s-3.22,5,0,5h0Z"/>
    <path class="cls-2" d="m180.29,759.59c3.22,0,3.22-5,0-5s-3.22,5,0,5h0Z"/>
    <path class="cls-2" d="m331.76,654.44c3.22,0,3.22-5,0-5s-3.22,5,0,5h0Z"/>
    <path class="cls-2" d="m396.47,728.71c3.22,0,3.22-5,0-5s-3.22,5,0,5h0Z"/>
    <path class="cls-2" d="m344.26,734.59c3.22,0,3.22-5,0-5s-3.22,5,0,5h0Z"/>
    <path class="cls-2" d="m331.76,769.88c3.22,0,3.22-5,0-5s-3.22,5,0,5h0Z"/>
    <path class="cls-2" d="m331.03,808.12c3.22,0,3.22-5,0-5s-3.22,5,0,5h0Z"/>
    <path class="cls-2" d="m270,808.12c3.22,0,3.22-5,0-5s-3.22,5,0,5h0Z"/>
    <path class="cls-2" d="m266.32,786.79c3.22,0,3.22-5,0-5s-3.22,5,0,5h0Z"/>
    <path class="cls-2" d="m252.35,741.94c3.22,0,3.22-5,0-5s-3.22,5,0,5h0Z"/>
    <path class="cls-2" d="m236.91,794.15c3.22,0,3.22-5,0-5s-3.22,5,0,5h0Z"/>
    <path class="cls-2" d="m283.24,885.32c3.22,0,3.22-5,0-5s-3.22,5,0,5h0Z"/>
    <path class="cls-2" d="m232.5,888.26c3.22,0,3.22-5,0-5s-3.22,5,0,5h0Z"/>
    <path class="cls-2" d="m174.41,877.97c3.22,0,3.22-5,0-5s-3.22,5,0,5h0Z"/>
    <path class="cls-2" d="m383.97,886.06c3.22,0,3.22-5,0-5s-3.22,5,0,5h0Z"/>
    <path class="cls-2" d="m377.35,848.56c3.22,0,3.22-5,0-5s-3.22,5,0,5h0Z"/>
    <path class="cls-2" d="m445.74,872.82c3.22,0,3.22-5,0-5s-3.22,5,0,5h0Z"/>
    <path class="cls-2" d="m431.76,839c3.22,0,3.22-5,0-5s-3.22,5,0,5h0Z"/>
    <path class="cls-2" d="m442.06,806.65c3.22,0,3.22-5,0-5s-3.22,5,0,5h0Z"/>
    <path class="cls-2" d="m477.35,789.74c3.22,0,3.22-5,0-5s-3.22,5,0,5h0Z"/>
    <path class="cls-2" d="m451.62,748.56c3.22,0,3.22-5,0-5s-3.22,5,0,5h0Z"/>
    <path class="cls-2" d="m485.44,711.06c3.22,0,3.22-5,0-5s-3.22,5,0,5h0Z"/>
    <path class="cls-2" d="m457.5,691.21c3.22,0,3.22-5,0-5s-3.22,5,0,5h0Z"/>
    <path class="cls-2" d="m467.06,643.41c3.22,0,3.22-5,0-5s-3.22,5,0,5h0Z"/>
    <path class="cls-2" d="m427.35,619.88c3.22,0,3.22-5,0-5s-3.22,5,0,5h0Z"/>
    <path class="cls-2" d="m485.44,858.12c3.22,0,3.22-5,0-5s-3.22,5,0,5h0Z"/>
    <path class="cls-2" d="m466.32,892.68c3.22,0,3.22-5,0-5s-3.22,5,0,5h0Z"/>
    <path class="cls-2" d="m488.38,414.74c3.22,0,3.22-5,0-5s-3.22,5,0,5h0Z"/>
    <path class="cls-2" d="m393.53,411.79c3.22,0,3.22-5,0-5s-3.22,5,0,5h0Z"/>
    <path class="cls-2" d="m374.41,425.03c3.22,0,3.22-5,0-5s-3.22,5,0,5h0Z"/>
    <path class="cls-2" d="m316.62,100.47v-1.47c.01-.34-.06-.67-.22-.96-.1-.31-.27-.58-.52-.8-.23-.24-.49-.42-.8-.52-.3-.16-.62-.23-.96-.22l-.66.09c-.42.12-.79.33-1.1.64l-.39.51c-.23.39-.34.81-.34,1.26v1.47c-.01.34.06.67.22.96.1.31.27.58.52.8.23.24.49.42.8.52.3.16.62.23.96.22l.66-.09c.42-.12.79-.33,1.1-.64l.39-.51c.23-.39.34-.81.34-1.26h0Z"/>
    <path class="cls-2" d="m286.18,50.76c3.22,0,3.22-5,0-5s-3.22,5,0,5h0Z"/>
    <path class="cls-2" d="m224.41,56.65c3.22,0,3.22-5,0-5s-3.22,5,0,5h0Z"/>
    <path class="cls-2" d="m274.41,21.35c3.22,0,3.22-5,0-5s-3.22,5,0,5h0Z"/>
  </g>
  <g id="Layer_1" data-name="Layer 1">
    <text class="cls-6" transform="translate(133.43 290.76) rotate(-15.54)"><tspan x="0" y="0">Y</tspan></text>
    <text class="cls-6" transform="translate(193.5 274.43) rotate(-2.89)"><tspan x="0" y="0">O</tspan></text>
    <text class="cls-6" transform="translate(259.51 271.91) rotate(9.21)"><tspan x="0" y="0">U</tspan></text>
    <text class="cls-5" transform="translate(70.72 668.03) rotate(-32.38)"><tspan x="0" y="0">A</tspan></text>
    <text class="cls-5" transform="translate(85.11 658.98) rotate(-29.27)"><tspan x="0" y="0">A</tspan></text>
    <text class="cls-5" transform="translate(99.9 650.85) rotate(-26.92)"><tspan x="0" y="0"> </tspan></text>
    <text class="cls-5" transform="translate(107.19 647.1) rotate(-24.52)"><tspan x="0" y="0">B</tspan></text>
    <text class="cls-5" transform="translate(122.59 640.15) rotate(-21.24)"><tspan x="0" y="0">B</tspan></text>
    <text class="cls-5" transform="translate(138.46 634.14) rotate(-18.76)"><tspan x="0" y="0"> </tspan></text>
    <text class="cls-5" transform="translate(146.22 631.47) rotate(-16.32)"><tspan x="0" y="0">C</tspan></text>
    <text class="cls-5" transform="translate(161.77 626.98) rotate(-13.06)"><tspan x="0" y="0">C</tspan></text>
    <text class="cls-5" transform="translate(177.6 623.47) rotate(-10.91)"><tspan x="0" y="0"> </tspan></text>
    <text class="cls-5" transform="translate(185.66 621.9) rotate(-8.06)"><tspan x="0" y="0">D</tspan></text>
    <text class="cls-5" transform="translate(202.47 619.59) rotate(-4.77)"><tspan x="0" y="0">D</tspan></text>
    <text class="cls-5" transform="translate(219.47 618.32) rotate(-2.39)"><tspan x="0" y="0"> </tspan></text>
    <text class="cls-5" transform="translate(227.69 617.95) rotate(-.21)"><tspan x="0" y="0">E</tspan></text>
    <text class="cls-5" transform="translate(243.17 617.96) rotate(2.57)"><tspan x="0" y="0">E</tspan></text>
    <text class="cls-5" transform="translate(258.69 618.76) rotate(4.66)"><tspan x="0" y="0"> </tspan></text>
    <text class="cls-5" transform="translate(266.89 619.42) rotate(6.66)"><tspan x="0" y="0">F</tspan></text>
    <text class="cls-5" transform="translate(281.59 621.19) rotate(9.22)"><tspan x="0" y="0">F</tspan></text>
    <text class="cls-5" transform="translate(296.25 623.67) rotate(11.23)"><tspan x="0" y="0"> </tspan></text>
    <text class="cls-5" transform="translate(304.33 625.24) rotate(13.43)"><tspan x="0" y="0">G</tspan></text>
    <text class="cls-5" transform="translate(320.3 629.12) rotate(16.49)"><tspan x="0" y="0">G</tspan></text>
    <text class="cls-5" transform="translate(336.09 633.94) rotate(19)"><tspan x="0" y="0"> </tspan></text>
    <text class="cls-5" transform="translate(343.81 636.52) rotate(21.93)"><tspan x="0" y="0">H</tspan></text>
    <text class="cls-5" transform="translate(359.84 643.03) rotate(27.03)"><tspan x="0" y="0">H</tspan></text>
    <text class="cls-5" transform="translate(375 651.08) rotate(32.75)"><tspan x="0" y="0"> </tspan></text>
    <text class="cls-5" transform="translate(381.49 655.29) rotate(39.44)"><tspan x="0" y="0">I</tspan></text>
    <text class="cls-5" transform="translate(387.73 660.36) rotate(54.7)"><tspan x="0" y="0">I</tspan></text>
    <text class="cls-5" transform="translate(391.61 665.41) rotate(90.95)"><tspan x="0" y="0"> </tspan></text>
    <text class="cls-5" transform="translate(391.94 670.58) rotate(150.74)"><tspan x="0" y="0">J</tspan></text>
    <text class="cls-5" transform="translate(382.67 675.17) rotate(167.26)"><tspan x="0" y="0">J</tspan></text>
    <text class="cls-5" transform="translate(371.13 677.57) rotate(171.46)"><tspan x="0" y="0"> </tspan></text>
    <text class="cls-5" transform="translate(362.99 678.79) rotate(173.55)"><tspan x="0" y="0">K</tspan></text>
    <text class="cls-5" transform="translate(345.55 680.7) rotate(174.36)"><tspan x="0" y="0">K</tspan></text>
    <text class="cls-5" transform="translate(328.06 682.43) rotate(174.28)"><tspan x="0" y="0"> </tspan></text>
    <text class="cls-5" transform="translate(319.68 683.26) rotate(173.93)"><tspan x="0" y="0">L</tspan></text>
    <text class="cls-5" transform="translate(304.76 684.86) rotate(173.21)"><tspan x="0" y="0">L</tspan></text>
    <text class="cls-5" transform="translate(289.89 686.67) rotate(172.48)"><tspan x="0" y="0"> </tspan></text>
    <text class="cls-5" transform="translate(281.59 687.72) rotate(171.34)"><tspan x="0" y="0">M</tspan></text>
    <text class="cls-5" transform="translate(259.58 691.11) rotate(169.3)"><tspan x="0" y="0">M</tspan></text>
    <text class="cls-5" transform="translate(237.47 695.43) rotate(167.62)"><tspan x="0" y="0"> </tspan></text>
    <text class="cls-5" transform="translate(228.77 697.31) rotate(165.97)"><tspan x="0" y="0">N</tspan></text>
    <text class="cls-5" transform="translate(210.6 701.92) rotate(163.43)"><tspan x="0" y="0">N</tspan></text>
    <text class="cls-5" transform="translate(192.76 707.37) rotate(161.33)"><tspan x="0" y="0"> </tspan></text>
    <text class="cls-5" transform="translate(184.17 710.25) rotate(159.1)"><tspan x="0" y="0">O</tspan></text>
    <text class="cls-5" transform="translate(167.35 716.78) rotate(155.76)"><tspan x="0" y="0">O</tspan></text>
    <text class="cls-5" transform="translate(151.14 724.28) rotate(152.98)"><tspan x="0" y="0"> </tspan></text>
    <text class="cls-5" transform="translate(142.88 728.47) rotate(150.01)"><tspan x="0" y="0">P</tspan></text>
    <text class="cls-5" transform="translate(127.54 737.48) rotate(145.67)"><tspan x="0" y="0">P</tspan></text>
    <text class="cls-5" transform="translate(113.24 747.57) rotate(142.84)"><tspan x="0" y="0"> </tspan></text>
    <text class="cls-5" transform="translate(105.47 753.51) rotate(137.55)"><tspan x="0" y="0">Q</tspan></text>
    <text class="cls-5" transform="translate(90.63 767.55) rotate(125.75)"><tspan x="0" y="0">Q</tspan></text>
    <text class="cls-5" transform="translate(78.65 788.23) rotate(101.39)"><tspan x="0" y="0"> </tspan></text>
    <text class="cls-5" transform="translate(79.13 809.1) rotate(57.3)"><tspan x="0" y="0">R</tspan></text>
    <text class="cls-5" transform="translate(93.44 827.27) rotate(36.05)"><tspan x="0" y="0">R</tspan></text>
    <text class="cls-5" transform="translate(109.29 838.04) rotate(28.99)"><tspan x="0" y="0"> </tspan></text>
    <text class="cls-5" transform="translate(117.79 842.71) rotate(24.52)"><tspan x="0" y="0">S</tspan></text>
    <text class="cls-5" transform="translate(133.51 849.69) rotate(20.46)"><tspan x="0" y="0">S</tspan></text>
    <text class="cls-5" transform="translate(149.23 855.43) rotate(18.07)"><tspan x="0" y="0"> </tspan></text>
    <text class="cls-5" transform="translate(158.15 858.34) rotate(14.82)"><tspan x="0" y="0">T</tspan></text>
    <text class="cls-5" transform="translate(174.86 862.6) rotate(10.83)"><tspan x="0" y="0">T</tspan></text>
    <text class="cls-5" transform="translate(191.15 865.54) rotate(8.01)"><tspan x="0" y="0"> </tspan></text>
    <text class="cls-5" transform="translate(200.32 866.85) rotate(5.12)"><tspan x="0" y="0">U</tspan></text>
    <text class="cls-5" transform="translate(218.49 868.35) rotate(1.33)"><tspan x="0" y="0">U</tspan></text>
    <text class="cls-5" transform="translate(236.41 868.58) rotate(-1.48)"><tspan x="0" y="0"> </tspan></text>
    <text class="cls-5" transform="translate(245.62 868.35) rotate(-4.23)"><tspan x="0" y="0">V</tspan></text>
    <text class="cls-5" transform="translate(263.22 866.93) rotate(-7.99)"><tspan x="0" y="0">V</tspan></text>
    <text class="cls-5" transform="translate(280.28 864.34) rotate(-10.9)"><tspan x="0" y="0"> </tspan></text>
    <text class="cls-5" transform="translate(289.65 862.65) rotate(-14.69)"><tspan x="0" y="0">W</tspan></text>
    <text class="cls-5" transform="translate(313.35 856.22) rotate(-20.61)"><tspan x="0" y="0">W</tspan></text>
    <text class="cls-5" transform="translate(335.6 847.41) rotate(-24.93)"><tspan x="0" y="0"> </tspan></text>
    <text class="cls-5" transform="translate(344.21 843.43) rotate(-28.68)"><tspan x="0" y="0">X</tspan></text>
    <text class="cls-5" transform="translate(360.62 834.25) rotate(-33.99)"><tspan x="0" y="0">X</tspan></text>
    <text class="cls-5" transform="translate(375.74 823.69) rotate(-38.12)"><tspan x="0" y="0"> </tspan></text>
    <text class="cls-5" transform="translate(383.3 817.78) rotate(-42.28)"><tspan x="0" y="0">Y</tspan></text>
    <text class="cls-5" transform="translate(396.81 805.21) rotate(-47.95)"><tspan x="0" y="0">Y</tspan></text>
    <text class="cls-5" transform="translate(408.68 791.61) rotate(-52.22)"><tspan x="0" y="0"> </tspan></text>
    <text class="cls-5" transform="translate(414.52 784.05) rotate(-56.25)"><tspan x="0" y="0">Z</tspan></text>
    <text class="cls-5" transform="translate(423.99 769.51) rotate(-61.45)"><tspan x="0" y="0">Z</tspan></text>
    <text/>
  </g>
  <g id="Layer_2" data-name="Layer 2">
    <text class="cls-6" transform="translate(123.28 533.38) rotate(-20.38)"><tspan x="0" y="0">W</tspan></text>
    <text class="cls-6" transform="translate(205.7 505.26) rotate(-2.33)"><tspan x="0" y="0">O</tspan></text>
    <text class="cls-6" transform="translate(270.4 503.18) rotate(13.14)"><tspan x="0" y="0">N</tspan></text>
    <text class="cls-6" transform="translate(338.48 521.44) rotate(23.92)"><tspan x="0" y="0">!</tspan></text>
  </g>
</svg>